<svg width="25" height="24" viewBox="0 0 25 24" fill="none" xmlns="http://www.w3.org/2000/svg">
<path fill-rule="evenodd" clip-rule="evenodd" d="M19.5 1C18.38 1 17.36 1.46 16.63 2.21C16.21 2.64 15.89 3.16 15.7 3.74C15.57 4.14 15.5 4.56 15.5 5C15.5 5.75 15.71 6.46 16.08 7.06C16.28 7.4 16.54 7.71 16.84 7.97C17.54 8.61 18.47 9 19.5 9C19.94 9 20.36 8.93 20.75 8.79C21.67 8.5 22.44 7.87 22.92 7.06C23.13 6.72 23.29 6.33 23.38 5.93C23.46 5.63 23.5 5.32 23.5 5C23.5 3.98 23.11 3.04 22.47 2.33C21.75 1.51 20.68 1 19.5 1ZM20.25 5.73V6.51C20.25 6.92 19.91 7.26 19.5 7.26C19.09 7.26 18.75 6.92 18.75 6.51V5.73H18.01C17.6 5.73 17.26 5.39 17.26 4.98C17.26 4.57 17.6 4.23 18.01 4.23H18.75V3.52C18.75 3.11 19.09 2.77 19.5 2.77C19.91 2.77 20.25 3.11 20.25 3.52V4.23H20.99C21.4 4.23 21.74 4.57 21.74 4.98C21.74 5.39 21.41 5.73 20.99 5.73H20.25Z" fill="black"/>
<path d="M21.78 8.28C21.47 8.5 21.12 8.67 20.75 8.79C20.64 8.83 20.53 8.86 20.41 8.89C20.79 9.85 21 10.9 21 12C21 14.32 20.06 16.43 18.54 17.97C18.25 17.6 17.88 17.26 17.44 16.97C14.73 15.15 10.29 15.15 7.56 16.97C7.12 17.26 6.76 17.6 6.46 17.97C4.94 16.43 4 14.32 4 12C4 7.31 7.81 3.5 12.5 3.5C13.59 3.5 14.64 3.71 15.6 4.09C15.63 3.97 15.66 3.86 15.7 3.74C15.82 3.37 15.99 3.03 16.22 2.72C15.07 2.25 13.81 2 12.5 2C6.99 2 2.5 6.49 2.5 12C2.5 14.9 3.75 17.51 5.73 19.34C5.73 19.35 5.73 19.35 5.72 19.36C5.82 19.46 5.94 19.54 6.04 19.63C6.1 19.68 6.15 19.73 6.21 19.77C6.39 19.92 6.59 20.06 6.78 20.2C6.85 20.25 6.91 20.29 6.98 20.34C7.17 20.47 7.37 20.59 7.58 20.7C7.65 20.74 7.73 20.79 7.8 20.83C8 20.94 8.21 21.04 8.43 21.13C8.51 21.17 8.59 21.21 8.67 21.24C8.89 21.33 9.11 21.41 9.33 21.48C9.41 21.51 9.49 21.54 9.57 21.56C9.81 21.63 10.05 21.69 10.29 21.75C10.36 21.77 10.43 21.79 10.51 21.8C10.79 21.86 11.07 21.9 11.36 21.93C11.4 21.93 11.44 21.94 11.48 21.95C11.82 21.98 12.16 22 12.5 22C12.84 22 13.18 21.98 13.51 21.95C13.55 21.95 13.59 21.94 13.63 21.93C13.92 21.9 14.2 21.86 14.48 21.8C14.55 21.79 14.62 21.76 14.7 21.75C14.94 21.69 15.19 21.64 15.42 21.56C15.5 21.53 15.58 21.5 15.66 21.48C15.88 21.4 16.11 21.33 16.32 21.24C16.4 21.21 16.48 21.17 16.56 21.13C16.77 21.04 16.98 20.94 17.19 20.83C17.27 20.79 17.34 20.74 17.41 20.7C17.61 20.58 17.81 20.47 18.01 20.34C18.08 20.3 18.14 20.25 18.21 20.2C18.41 20.06 18.6 19.92 18.78 19.77C18.84 19.72 18.89 19.67 18.95 19.63C19.06 19.54 19.17 19.45 19.27 19.36C19.27 19.35 19.27 19.35 19.26 19.34C21.25 17.51 22.5 14.9 22.5 12C22.5 10.69 22.25 9.43 21.78 8.28Z" fill="black"/>
<path d="M8.75 10.6797C8.75 12.7097 10.34 14.3597 12.45 14.4197C12.48 14.4197 12.52 14.4197 12.54 14.4197C12.56 14.4197 12.59 14.4197 12.61 14.4197C12.62 14.4197 12.63 14.4197 12.63 14.4197C14.65 14.3497 16.24 12.7097 16.25 10.6797C16.25 8.60969 14.57 6.92969 12.5 6.92969C10.43 6.92969 8.75 8.60969 8.75 10.6797Z" fill="black"/>
</svg>
