<svg width="48" height="48" viewBox="0 0 48 48" fill="none" xmlns="http://www.w3.org/2000/svg">
<path d="M35.4147 26.1001C35.2291 25.9142 35.0087 25.7667 34.7661 25.6661C34.5234 25.5655 34.2633 25.5137 34.0007 25.5137C33.738 25.5137 33.4779 25.5655 33.2353 25.6661C32.9927 25.7667 32.7722 25.9142 32.5867 26.1001L29.3987 29.2881C27.9207 28.8481 25.1627 27.8481 23.4147 26.1001C21.6667 24.3521 20.6667 21.5941 20.2267 20.1161L23.4147 16.9281C23.6006 16.7425 23.748 16.5221 23.8487 16.2795C23.9493 16.0368 24.0011 15.7767 24.0011 15.5141C24.0011 15.2514 23.9493 14.9913 23.8487 14.7487C23.748 14.5061 23.6006 14.2857 23.4147 14.1001L15.4147 6.10007C15.2291 5.91418 15.0087 5.76671 14.7661 5.66609C14.5234 5.56546 14.2633 5.51367 14.0007 5.51367C13.738 5.51367 13.4779 5.56546 13.2353 5.66609C12.9927 5.76671 12.7722 5.91418 12.5867 6.10007L7.16267 11.5241C6.40267 12.2841 5.97467 13.3281 5.99067 14.3941C6.03667 17.2421 6.79067 27.1341 14.5867 34.9301C22.3827 42.7261 32.2747 43.4781 35.1247 43.5261H35.1807C36.2367 43.5261 37.2347 43.1101 37.9907 42.3541L43.4147 36.9301C43.6006 36.7445 43.748 36.5241 43.8487 36.2815C43.9493 36.0388 44.0011 35.7787 44.0011 35.5161C44.0011 35.2534 43.9493 34.9933 43.8487 34.7507C43.748 34.5081 43.6006 34.2877 43.4147 34.1021L35.4147 26.1001ZM35.1607 39.5241C32.6647 39.4821 24.1247 38.8121 17.4147 32.1001C10.6827 25.3681 10.0307 16.7981 9.99067 14.3521L14.0007 10.3421L19.1727 15.5141L16.5867 18.1001C16.3516 18.335 16.1788 18.6247 16.0838 18.9432C15.9888 19.2617 15.9747 19.5988 16.0427 19.9241C16.0907 20.1541 17.2647 25.6081 20.5847 28.9281C23.9047 32.2481 29.3587 33.4221 29.5887 33.4701C29.9138 33.54 30.2512 33.527 30.57 33.4323C30.8887 33.3376 31.1785 33.1642 31.4127 32.9281L34.0007 30.3421L39.1727 35.5141L35.1607 39.5241Z" fill="#342E82"/>
</svg>
