<svg width="48" height="48" viewBox="0 0 48 48" fill="none" xmlns="http://www.w3.org/2000/svg">
<path d="M24.0001 27.5146C28.4121 27.5146 32.0001 23.9266 32.0001 19.5146C32.0001 15.1026 28.4121 11.5146 24.0001 11.5146C19.5881 11.5146 16.0001 15.1026 16.0001 19.5146C16.0001 23.9266 19.5881 27.5146 24.0001 27.5146ZM24.0001 15.5146C26.2061 15.5146 28.0001 17.3086 28.0001 19.5146C28.0001 21.7206 26.2061 23.5146 24.0001 23.5146C21.7941 23.5146 20.0001 21.7206 20.0001 19.5146C20.0001 17.3086 21.7941 15.5146 24.0001 15.5146Z" fill="#342E82"/>
<path d="M22.8402 43.1426C23.1787 43.3844 23.5842 43.5143 24.0002 43.5143C24.4161 43.5143 24.8217 43.3844 25.1602 43.1426C25.7682 42.7126 40.0582 32.3946 40.0002 19.5146C40.0002 10.6926 32.8222 3.51465 24.0002 3.51465C15.1782 3.51465 8.00018 10.6926 8.00018 19.5046C7.94218 32.3946 22.2322 42.7126 22.8402 43.1426ZM24.0002 7.51465C30.6182 7.51465 36.0002 12.8966 36.0002 19.5246C36.0422 28.4007 27.2242 36.3707 24.0002 38.9846C20.7782 36.3686 11.9582 28.3966 12.0002 19.5146C12.0002 12.8966 17.3822 7.51465 24.0002 7.51465Z" fill="#342E82"/>
</svg>
