<svg width="48" height="48" viewBox="0 0 48 48" fill="none" xmlns="http://www.w3.org/2000/svg">
<path d="M40 7.51465H8C5.794 7.51465 4 9.30865 4 11.5146V35.5146C4 37.7206 5.794 39.5146 8 39.5146H40C42.206 39.5146 44 37.7206 44 35.5146V11.5146C44 9.30865 42.206 7.51465 40 7.51465ZM40 11.5146V12.5366L24 24.9826L8 12.5386V11.5146H40ZM8 35.5146V17.6026L22.772 29.0926C23.1222 29.3677 23.5547 29.5173 24 29.5173C24.4453 29.5173 24.8778 29.3677 25.228 29.0926L40 17.6026L40.004 35.5146H8Z" fill="#342E82"/>
</svg>
