<svg width="32" height="32" viewBox="0 0 32 32" fill="none" xmlns="http://www.w3.org/2000/svg">
<path d="M23.6095 17.4C23.4857 17.2761 23.3388 17.1778 23.177 17.1107C23.0153 17.0436 22.8419 17.0091 22.6668 17.0091C22.4917 17.0091 22.3183 17.0436 22.1565 17.1107C21.9948 17.1778 21.8478 17.2761 21.7241 17.4L19.5988 19.5254C18.6135 19.232 16.7748 18.5654 15.6095 17.4C14.4441 16.2347 13.7775 14.396 13.4841 13.4107L15.6095 11.2854C15.7334 11.1617 15.8317 11.0147 15.8988 10.853C15.9659 10.6912 16.0004 10.5178 16.0004 10.3427C16.0004 10.1676 15.9659 9.99421 15.8988 9.83246C15.8317 9.6707 15.7334 9.52377 15.6095 9.40005L10.2761 4.06672C10.1524 3.94279 10.0055 3.84447 9.84371 3.77739C9.68196 3.71031 9.50856 3.67578 9.33345 3.67578C9.15834 3.67578 8.98495 3.71031 8.82319 3.77739C8.66144 3.84447 8.5145 3.94279 8.39079 4.06672L4.77479 7.68272C4.26812 8.18938 3.98279 8.88538 3.99345 9.59605C4.02412 11.4947 4.52679 18.0894 9.72412 23.2867C14.9215 28.484 21.5161 28.9854 23.4161 29.0174H23.4535C24.1575 29.0174 24.8228 28.74 25.3268 28.236L28.9428 24.62C29.0667 24.4963 29.165 24.3494 29.2321 24.1876C29.2992 24.0259 29.3337 23.8525 29.3337 23.6774C29.3337 23.5023 29.2992 23.3289 29.2321 23.1671C29.165 23.0054 29.0667 22.8584 28.9428 22.7347L23.6095 17.4ZM23.4401 26.3494C21.7761 26.3214 16.0828 25.8747 11.6095 21.4C7.12145 16.912 6.68679 11.1987 6.66012 9.56805L9.33345 6.89472L12.7815 10.3427L11.0575 12.0667C10.9007 12.2233 10.7855 12.4165 10.7222 12.6288C10.6589 12.8411 10.6495 13.0659 10.6948 13.2827C10.7268 13.436 11.5095 17.072 13.7228 19.2854C15.9361 21.4987 19.5721 22.2814 19.7255 22.3134C19.9422 22.36 20.1672 22.3513 20.3796 22.2882C20.5921 22.225 20.7853 22.1094 20.9415 21.952L22.6668 20.228L26.1148 23.676L23.4401 26.3494Z" fill="black"/>
</svg>
