<svg width="32" height="32" viewBox="0 0 32 32" fill="none" xmlns="http://www.w3.org/2000/svg">
<path d="M26.667 5.00977H5.33366C3.86299 5.00977 2.66699 6.20577 2.66699 7.67643V23.6764C2.66699 25.1471 3.86299 26.3431 5.33366 26.3431H26.667C28.1377 26.3431 29.3337 25.1471 29.3337 23.6764V7.67643C29.3337 6.20577 28.1377 5.00977 26.667 5.00977ZM26.667 7.67643V8.35777L16.0003 16.6551L5.33366 8.3591V7.67643H26.667ZM5.33366 23.6764V11.7351L15.1817 19.3951C15.4151 19.5785 15.7034 19.6782 16.0003 19.6782C16.2972 19.6782 16.5855 19.5785 16.819 19.3951L26.667 11.7351L26.6697 23.6764H5.33366Z" fill="black"/>
</svg>
