<svg width="32" height="32" viewBox="0 0 32 32" fill="none" xmlns="http://www.w3.org/2000/svg">
<path d="M15.9998 18.3433C18.9411 18.3433 21.3331 15.9513 21.3331 13.0099C21.3331 10.0686 18.9411 7.67659 15.9998 7.67659C13.0584 7.67659 10.6664 10.0686 10.6664 13.0099C10.6664 15.9513 13.0584 18.3433 15.9998 18.3433ZM15.9998 10.3433C17.4704 10.3433 18.6664 11.5393 18.6664 13.0099C18.6664 14.4806 17.4704 15.6766 15.9998 15.6766C14.5291 15.6766 13.3331 14.4806 13.3331 13.0099C13.3331 11.5393 14.5291 10.3433 15.9998 10.3433Z" fill="black"/>
<path d="M15.2265 28.7619C15.4521 28.9231 15.7225 29.0097 15.9998 29.0097C16.2771 29.0097 16.5475 28.9231 16.7731 28.7619C17.1785 28.4753 26.7051 21.5966 26.6665 13.0099C26.6665 7.12859 21.8811 2.34326 15.9998 2.34326C10.1185 2.34326 5.33313 7.12859 5.33313 13.0033C5.29446 21.5966 14.8211 28.4753 15.2265 28.7619ZM15.9998 5.00993C20.4118 5.00993 23.9998 8.59793 23.9998 13.0166C24.0278 18.9339 18.1491 24.2473 15.9998 25.9899C13.8518 24.2459 7.97179 18.9313 7.99979 13.0099C7.99979 8.59793 11.5878 5.00993 15.9998 5.00993Z" fill="black"/>
</svg>
