<svg width="24" height="24" viewBox="0 0 24 24" fill="none" xmlns="http://www.w3.org/2000/svg">
<path d="M4.22172 19.5355C4.68559 20.0001 5.23669 20.3684 5.84334 20.6193C6.44999 20.8702 7.10023 20.9987 7.75672 20.9975C8.41335 20.9987 9.06374 20.8701 9.67054 20.6192C10.2774 20.3683 10.8286 20.0001 11.2927 19.5355L14.1207 16.7065L12.7067 15.2925L9.87872 18.1215C9.31519 18.6825 8.55239 18.9975 7.75722 18.9975C6.96205 18.9975 6.19925 18.6825 5.63572 18.1215C5.07422 17.5583 4.75892 16.7954 4.75892 16C4.75892 15.2047 5.07422 14.4418 5.63572 13.8785L8.46472 11.0505L7.05072 9.63653L4.22172 12.4645C3.28552 13.403 2.75977 14.6745 2.75977 16C2.75977 17.3256 3.28552 18.5971 4.22172 19.5355ZM19.7777 11.0505C20.7134 10.1118 21.2388 8.84045 21.2388 7.51503C21.2388 6.18961 20.7134 4.91825 19.7777 3.97953C18.8393 3.04334 17.5678 2.51758 16.2422 2.51758C14.9166 2.51758 13.6452 3.04334 12.7067 3.97953L9.87872 6.80853L11.2927 8.22253L14.1207 5.39353C14.6842 4.83252 15.447 4.51756 16.2422 4.51756C17.0374 4.51756 17.8002 4.83252 18.3637 5.39353C18.9252 5.9568 19.2405 6.7197 19.2405 7.51503C19.2405 8.31036 18.9252 9.07326 18.3637 9.63653L15.5347 12.4645L16.9487 13.8785L19.7777 11.0505Z" fill="black"/>
<path d="M8.46371 16.7076L7.04871 15.2936L15.5357 6.80762L16.9497 8.22262L8.46371 16.7076Z" fill="black"/>
</svg>
