<svg width="49" height="48" viewBox="0 0 49 48" fill="none" xmlns="http://www.w3.org/2000/svg">
<path d="M19.6335 4C17.5535 4 15.8535 5.68 15.8535 7.76V9.64C15.8535 11.72 17.5335 13.4 19.6135 13.4H29.0335C31.1135 13.4 32.7935 11.72 32.7935 9.64V7.76C32.8135 5.68 31.1135 4 29.0335 4H19.6335Z" fill="#342E82"/>
<path fill-rule="evenodd" clip-rule="evenodd" d="M29.0321 15.419H19.6321C16.4521 15.419 13.8521 12.819 13.8521 9.63898C13.8521 8.51898 12.6521 7.81898 11.6521 8.33898C8.83211 9.83898 6.91211 12.819 6.91211 16.239V35.059C6.91211 39.979 10.9321 43.999 15.8521 43.999H32.8121C37.7321 43.999 41.7521 39.979 41.7521 35.059V16.239C41.7521 12.819 39.8321 9.83898 37.0121 8.33898C36.0121 7.81898 34.8121 8.51898 34.8121 9.63898C34.8121 12.819 32.2121 15.419 29.0321 15.419ZM23.0121 33.459C22.7121 33.759 22.3321 33.899 21.9521 33.899C21.5721 33.899 21.1921 33.759 20.8921 33.459L17.8921 30.459C17.3121 29.879 17.3121 28.919 17.8921 28.339C18.4721 27.759 19.4321 27.759 20.0121 28.339L21.9521 30.279L28.8921 23.339C29.4721 22.759 30.4321 22.759 31.0121 23.339C31.5921 23.919 31.5921 24.879 31.0121 25.459L23.0121 33.459Z" fill="#342E82"/>
</svg>
