<svg width="48" height="48" viewBox="0 0 48 48" fill="none" xmlns="http://www.w3.org/2000/svg">
<path fill-rule="evenodd" clip-rule="evenodd" d="M13.581 12C13.061 12 12.561 12.02 12.081 12.08C6.70098 12.54 4.00098 15.72 4.00098 21.58V29.58C4.00098 37.58 7.20098 39.16 13.581 39.16H14.381C14.821 39.16 15.401 39.46 15.661 39.8L18.061 43C19.121 44.42 20.841 44.42 21.901 43L24.301 39.8C24.601 39.4 25.081 39.16 25.581 39.16H26.381C32.241 39.16 35.421 36.48 35.881 31.08C35.941 30.6 35.961 30.1 35.961 29.58V21.58C35.961 15.2 32.761 12 26.381 12H13.581ZM11.001 26C11.001 24.9 11.901 24 13.001 24C14.101 24 15.001 24.9 15.001 26C15.001 27.1 14.101 28 13.001 28C11.881 28 11.001 27.1 11.001 26ZM17.981 26C17.981 24.9 18.881 24 19.981 24C21.081 24 21.981 24.9 21.981 26C21.981 27.1 21.101 28 19.981 28C18.861 28 17.981 27.1 17.981 26ZM24.981 26C24.981 24.9 25.881 24 26.981 24C28.081 24 28.981 24.9 28.981 26C28.981 27.1 28.081 28 26.981 28C25.861 28 24.981 27.1 24.981 26Z" fill="#342E82"/>
<path d="M43.9615 21.58C43.9615 25.58 42.7215 28.3 40.2415 29.8C39.6415 30.16 38.9415 29.68 38.9415 28.98L38.9615 21.58C38.9615 13.58 34.3815 9 26.3815 9L14.2015 9.02C13.5015 9.02 13.0215 8.32 13.3815 7.72C14.8815 5.24 17.6015 4 21.5815 4H34.3815C40.7615 4 43.9615 7.2 43.9615 13.58V21.58Z" fill="#342E82"/>
</svg>
