<svg width="49" height="48" viewBox="0 0 49 48" fill="none" xmlns="http://www.w3.org/2000/svg">
<path d="M36.667 4C38.867 4 40.667 5.8 40.667 8V14.64C40.667 15.74 39.767 16.64 38.667 16.64H10.667C9.56699 16.64 8.66699 15.74 8.66699 14.64V8C8.66699 5.8 10.467 4 12.667 4H36.667Z" fill="#342E82"/>
<path d="M8.66699 23.7606C8.66699 25.9206 9.82699 27.9206 11.727 28.9806L17.647 32.3206C18.907 33.0206 19.687 34.3606 19.687 35.8006V40.0006C19.687 42.2006 21.487 44.0006 23.687 44.0006H25.687C27.887 44.0006 29.687 42.2006 29.687 40.0006V35.8006C29.687 34.3606 30.467 33.0206 31.727 32.3206L37.647 28.9806C39.527 27.9206 40.707 25.9206 40.707 23.7606V20.6406C40.707 19.5406 39.807 18.6406 38.707 18.6406H10.667C9.56699 18.6406 8.66699 19.5206 8.66699 20.6406V23.7606Z" fill="#342E82"/>
</svg>
